<?xml version="1.0" standalone="no"?>
<!DOCTYPE svg PUBLIC "-//W3C//DTD SVG 20010904//EN"
 "http://www.w3.org/TR/2001/REC-SVG-20010904/DTD/svg10.dtd">
<svg version="1.0" xmlns="http://www.w3.org/2000/svg"
 width="395.000000pt" height="395.000000pt" viewBox="0 0 395.000000 395.000000"
 preserveAspectRatio="xMidYMid meet">
<metadata>
Created by potrace 1.14, written by Peter Selinger 2001-2017
</metadata>
<g transform="translate(0.000000,395.000000) scale(0.100000,-0.100000)"
fill="#000000" stroke="none">
<path d="M2011 3593 c-20 -18 -26 -37 -23 -79 3 -32 78 -101 119 -109 39 -7
163 -64 163 -75 0 -26 -217 -180 -415 -295 -146 -84 -157 -92 -206 -138 -56
-52 -83 -108 -99 -200 -15 -84 -9 -157 18 -225 31 -79 47 -99 110 -139 87 -56
124 -66 238 -64 l102 1 -13 -43 c-37 -117 -67 -202 -86 -239 -42 -83 -70 -189
-90 -343 -6 -44 -13 -96 -15 -115 -4 -25 -19 -49 -53 -83 l-48 -47 -37 34
c-85 81 -194 49 -282 -83 -51 -75 -67 -140 -62 -246 l3 -75 -37 0 c-21 0 -57
-5 -80 -10 -24 -6 -79 -19 -123 -29 -44 -11 -88 -22 -97 -26 -15 -6 -17 3 -20
76 -2 58 -7 84 -17 87 -10 3 -12 -14 -10 -92 3 -58 0 -97 -6 -100 -5 -2 -7 -7
-3 -11 4 -4 58 6 120 23 62 17 140 36 173 42 117 22 113 22 125 -14 16 -51 76
-114 118 -127 21 -6 68 -9 104 -7 59 3 65 1 57 -14 -5 -9 -9 -28 -9 -41 0 -32
27 -97 41 -97 6 0 17 -7 25 -15 9 -8 25 -15 37 -16 12 0 33 -2 47 -4 14 -1 32
1 40 5 8 4 44 11 79 14 46 5 82 17 126 41 52 30 63 33 76 21 19 -19 114 -46
161 -46 101 0 197 58 211 127 5 26 10 28 54 29 53 2 126 30 160 63 33 31 63
26 180 -29 68 -33 112 -48 125 -44 11 3 17 8 14 11 -3 3 4 23 15 45 14 28 21
62 22 112 2 91 -16 104 -24 16 -3 -36 -14 -86 -24 -113 -21 -54 -27 -55 -108
-6 -26 16 -66 33 -88 38 -59 13 -64 22 -38 67 48 86 64 152 64 265 0 68 -3 79
-29 113 -58 77 -192 110 -264 66 -33 -20 -54 -19 -51 3 4 33 -5 45 -47 66 -35
18 -55 22 -85 17 -32 -5 -41 -3 -45 11 -3 10 -11 29 -19 43 -19 37 -55 157
-67 225 -13 72 -14 208 -4 290 4 33 8 110 9 170 2 109 3 112 34 149 17 22 37
59 45 82 7 24 16 44 21 44 5 0 7 14 5 30 -3 17 -1 33 4 36 4 3 8 16 8 30 0 30
76 194 91 194 5 0 8 4 5 9 -3 5 22 35 56 67 34 33 82 78 106 102 25 23 46 42
48 42 1 0 26 -43 56 -96 56 -102 98 -145 159 -161 46 -13 99 4 116 37 22 43
16 133 -9 166 -27 35 -60 63 -72 64 -6 0 -27 12 -47 26 -20 14 -67 36 -103 48
-37 13 -67 26 -67 30 1 3 17 37 36 76 24 48 44 74 65 85 51 26 36 90 -25 109
-11 3 -25 2 -31 -2 -17 -11 -34 -48 -34 -72 0 -23 -58 -141 -69 -139 -3 0 -18
15 -33 34 -27 31 -27 35 -18 86 6 30 20 64 33 79 13 14 29 37 35 53 10 23 9
30 -8 47 -25 25 -71 26 -100 2 -18 -15 -22 -29 -24 -95 -1 -42 -6 -81 -12 -86
-5 -5 -31 -5 -61 2 -55 11 -54 10 -94 105 -8 17 -17 32 -21 32 -5 0 -8 6 -8
13 0 25 -55 64 -118 86 -77 26 -152 28 -181 4z m198 -46 c61 -30 66 -35 89
-92 13 -33 35 -74 48 -92 13 -17 24 -34 24 -38 0 -3 4 -11 10 -18 57 -71 57
-71 96 -71 22 0 51 3 65 8 23 6 28 2 56 -43 30 -47 36 -51 105 -72 85 -25 215
-98 242 -136 28 -38 25 -131 -5 -155 -26 -22 -61 -23 -97 -4 -40 21 -64 52
-107 136 -20 41 -44 83 -53 93 -23 26 -2 21 57 -15 57 -35 81 -69 103 -148 16
-56 34 -54 30 3 -6 70 -54 140 -120 174 -45 24 -132 38 -132 22 0 -7 -48 -57
-106 -114 -99 -95 -108 -102 -149 -103 -23 -1 -61 -9 -84 -17 -50 -17 -62 -14
-85 26 -10 16 -36 41 -58 55 -36 23 -38 27 -25 42 29 33 58 104 64 155 5 48
11 57 71 113 l65 62 -22 30 c-22 31 -114 82 -148 82 -10 0 -35 11 -55 25 -20
14 -41 25 -46 25 -22 0 -30 68 -10 88 24 24 109 14 177 -21z m389 -36 c20 -12
11 -44 -16 -56 -12 -5 -22 -14 -22 -19 0 -4 -7 -3 -15 4 -18 15 -18 20 -5 54
10 26 33 33 58 17z m182 -130 c0 -17 -18 -31 -41 -31 -10 0 -13 53 -3 63 11
11 44 -13 44 -32z m-237 -16 c-8 -25 -19 -43 -24 -40 -4 3 -6 11 -4 18 19 54
26 67 34 67 5 0 3 -20 -6 -45z m-72 -67 c4 -6 11 -8 16 -5 6 4 19 0 29 -8 10
-8 14 -15 9 -15 -6 0 -16 5 -23 12 -9 9 -12 9 -12 -4 0 -24 -46 -10 -66 19
l-16 26 28 -7 c16 -4 32 -12 35 -18z m217 -48 c-16 -33 -34 -60 -39 -60 -5 0
4 27 21 60 17 33 35 60 40 60 5 0 -5 -27 -22 -60z m-554 -106 c-4 -14 -19 -39
-35 -55 -25 -25 -29 -27 -41 -12 -11 15 -11 16 5 10 11 -4 17 -1 17 9 0 8 -4
12 -10 9 -5 -3 -10 -1 -10 5 0 6 8 14 17 17 9 4 25 15 35 25 25 25 30 23 22
-8z m-110 -62 c-11 -10 -21 -25 -21 -34 0 -15 3 -15 25 2 31 25 45 16 39 -23
-4 -27 -3 -28 9 -12 7 10 11 21 9 25 -3 5 2 11 11 14 13 5 13 1 -3 -26 -22
-37 -37 -43 -100 -33 -44 6 -44 7 -24 24 26 22 27 33 4 24 -12 -5 -10 1 8 19
22 22 43 35 59 37 3 0 -4 -8 -16 -17z m-93 -61 c-9 -15 -68 -35 -79 -26 -5 5
63 45 76 45 9 0 10 -5 3 -19z m137 -78 c54 -26 145 -121 188 -199 33 -58 39
-78 40 -135 3 -97 -20 -133 -115 -181 -166 -82 -389 -51 -455 64 -11 18 -22
35 -25 38 -4 3 -12 16 -19 30 -7 14 -21 39 -32 55 -61 94 -68 138 -31 197 44
69 141 134 216 145 84 13 189 7 233 -14z m310 -115 c-8 -13 -23 -45 -33 -72
l-19 -49 -9 29 c-6 16 -18 41 -28 56 -22 30 -23 38 -8 38 5 0 7 -5 3 -11 -4
-8 0 -9 15 -4 13 4 21 2 21 -5 0 -6 5 -8 10 -5 6 3 10 1 10 -6 0 -7 3 -9 7 -6
3 4 -1 15 -10 25 -21 23 -13 32 26 32 28 0 29 -1 15 -22z m-761 -225 c28 -66
127 -189 166 -207 116 -53 261 -62 353 -21 70 31 74 31 38 0 -68 -60 -84 -66
-229 -84 -65 -8 -166 17 -240 59 -59 34 -79 57 -91 104 -4 16 -13 41 -20 55
-15 29 -19 141 -5 141 4 0 17 -21 28 -47z m585 -270 c3 -10 3 -24 0 -32 -4
-11 -6 -11 -13 0 -6 10 -9 8 -9 -9 0 -13 4 -20 10 -17 6 4 10 -8 10 -29 0 -19
-5 -38 -11 -42 -8 -4 -9 3 -4 26 5 23 4 30 -4 26 -6 -4 -9 -12 -6 -17 4 -5 -2
-9 -12 -9 -15 0 -16 -2 -3 -10 12 -8 11 -10 -7 -10 -14 0 -26 10 -35 30 -7 17
-17 30 -21 30 -5 0 -5 -5 -1 -12 4 -7 3 -8 -4 -4 -17 10 -15 26 6 33 22 8 76
46 80 56 6 13 20 7 24 -10z m-55 -163 l45 0 -7 -47 c-4 -26 -8 -71 -10 -99 -3
-45 -8 -57 -43 -92 -60 -60 -67 -138 -18 -205 24 -33 65 -57 96 -57 11 0 20
-6 20 -13 0 -7 11 -41 25 -76 l24 -63 -26 -39 c-30 -46 -33 -101 -7 -150 8
-17 14 -32 12 -33 -30 -19 -58 -36 -61 -36 -3 0 -5 79 -5 177 -1 140 -4 179
-15 191 -13 12 -15 -10 -15 -179 0 -330 -6 -454 -21 -472 -29 -35 -33 -18 -25
111 4 70 7 138 7 152 0 14 -1 74 -2 133 -1 87 -4 109 -16 114 -9 3 -17 4 -19
2 -2 -2 -1 -42 3 -89 4 -47 5 -108 3 -136 -4 -55 -16 -68 -74 -79 -34 -7 -35
-6 -33 27 16 228 16 265 2 271 -16 6 -22 -55 -33 -365 -5 -119 -9 -158 -19
-158 -23 0 -27 70 -9 185 2 17 7 108 10 203 6 149 5 172 -8 172 -12 0 -17 -23
-24 -112 -4 -62 -8 -133 -9 -158 0 -42 -2 -45 -27 -48 -31 -4 -34 4 -13 32 9
13 15 43 15 81 0 53 -4 65 -31 98 -27 33 -31 57 -9 57 12 0 65 52 72 72 10 25
-3 30 -25 11 -19 -18 -19 -16 -14 67 7 110 17 134 67 160 47 24 68 63 76 141
3 36 -1 59 -15 87 l-20 39 25 64 c14 35 29 74 35 87 l9 24 31 -26 c23 -20 42
-26 76 -26z m-177 -247 c0 -35 -18 -83 -32 -83 -4 0 -8 -7 -8 -15 0 -8 -7 -15
-15 -15 -19 0 -19 -4 6 66 11 32 23 70 26 82 8 32 23 9 23 -35z m228 -158 c11
-33 19 -61 17 -63 -6 -7 -52 18 -73 41 -24 25 -41 94 -21 81 8 -4 8 -1 1 13
-8 15 -5 26 16 53 l27 35 6 -50 c4 -28 16 -77 27 -110z m110 -320 c-3 -3 -9 2
-12 12 -6 14 -5 15 5 6 7 -7 10 -15 7 -18z m102 1 c0 -35 -20 -43 -42 -16 -25
31 -23 40 12 40 25 0 30 -4 30 -24z m-836 -48 c4 -55 12 -69 32 -61 12 5 14
15 9 54 -5 33 -3 49 4 49 16 0 65 -58 73 -86 5 -21 1 -27 -30 -44 -22 -12 -29
-19 -17 -18 17 3 20 -3 21 -32 0 -42 12 -72 26 -64 6 4 8 -33 5 -105 -5 -90
-10 -118 -28 -151 -18 -32 -27 -39 -42 -34 -15 5 -19 3 -14 -9 7 -19 -53 -30
-106 -18 -81 19 -114 61 -121 158 -3 32 -2 50 0 41 3 -10 10 -18 16 -18 5 0 7
7 4 16 -3 9 -6 22 -6 30 0 9 -4 13 -9 9 -13 -7 -22 25 -20 72 1 42 50 153 76
174 15 12 16 12 10 -3 -3 -10 -2 -18 3 -18 6 0 11 12 11 28 1 19 3 21 6 7 2
-11 6 -30 9 -43 9 -44 29 -17 29 39 0 47 3 55 25 66 13 6 26 11 27 9 2 -2 5
-23 7 -48z m867 -1 c-8 -8 -11 -7 -11 4 0 9 3 19 7 23 4 4 9 2 11 -4 3 -7 -1
-17 -7 -23z m89 -37 c-19 -64 -19 -83 1 -63 6 6 17 9 25 6 9 -3 15 8 19 34 4
21 8 43 9 48 2 6 21 10 44 11 l41 0 -6 -54 c-7 -73 18 -67 32 8 6 29 15 55 21
57 16 5 66 -57 60 -73 -4 -8 -9 -21 -12 -29 -3 -8 -1 -15 5 -15 6 0 11 9 11
21 0 12 4 18 11 13 19 -11 4 -141 -26 -228 -31 -93 -66 -143 -112 -163 -18 -7
-33 -17 -33 -21 0 -4 -13 -13 -30 -19 -16 -6 -30 -8 -30 -3 0 4 -13 10 -30 12
-16 3 -30 1 -30 -4 0 -4 12 -8 26 -8 14 0 23 -4 19 -9 -3 -6 -17 -6 -36 1 -25
9 -29 15 -25 33 5 19 2 22 -19 17 -22 -4 -24 -7 -13 -21 7 -9 -3 -3 -22 13
-46 38 -64 86 -64 171 0 84 7 113 40 181 21 44 130 161 140 151 2 -2 -5 -32
-16 -67z m140 59 c0 -3 -18 -6 -40 -6 -22 0 -40 4 -40 9 0 5 18 8 40 6 22 -1
40 -5 40 -9z m-839 -83 c0 -6 2 -22 4 -36 3 -29 -20 -90 -34 -90 -22 0 -61 52
-61 81 0 17 -5 39 -11 50 -8 16 -7 25 7 40 9 10 21 16 25 13 5 -3 9 2 9 12 0
18 59 -50 61 -70z m454 64 c3 -5 1 -10 -4 -10 -6 0 -11 5 -11 10 0 6 2 10 4
10 3 0 8 -4 11 -10z m9 -51 c-3 -5 3 -6 13 -2 16 6 16 5 4 -10 -16 -21 -27
-15 -33 18 -4 20 -3 23 8 14 8 -6 11 -15 8 -20z m76 -53 c-25 -55 -44 -185
-37 -253 l6 -53 -75 0 -76 0 4 117 3 117 40 23 c22 12 50 23 63 23 13 0 35 14
53 35 17 19 33 35 34 35 2 0 -5 -20 -15 -44z m-673 -68 c-3 -7 -5 -2 -5 12 0
14 2 19 5 13 2 -7 2 -19 0 -25z m84 -43 c24 -14 59 -25 78 -25 l33 0 -5 -101
c-3 -55 -7 -102 -9 -103 -1 -1 -30 -7 -63 -13 -33 -6 -68 -14 -77 -18 -20 -8
-28 25 -16 69 4 16 9 71 10 122 1 52 3 94 4 94 1 0 22 -11 45 -25z m301 -42
c2 -16 0 -48 -3 -72 -4 -25 -6 -64 -5 -88 1 -47 0 -49 -28 -28 -11 8 -27 15
-37 15 -14 0 -18 14 -24 79 -4 44 -4 84 0 90 6 10 55 28 82 30 6 1 13 -11 15
-26z m283 -220 c36 -39 38 -46 36 -98 -2 -28 -1 -29 13 -11 9 10 13 24 9 30
-3 6 -1 6 7 -1 11 -10 10 -17 -4 -37 -23 -36 -36 -32 -36 12 0 64 -9 81 -41
80 -29 -1 -38 -11 -19 -23 14 -9 12 -25 -3 -25 -8 0 -19 -10 -25 -22 -8 -17
-11 -18 -11 -7 -1 17 -28 45 -36 37 -3 -2 -9 -29 -14 -59 l-10 -54 2 48 c2 40
0 45 -10 30 -12 -15 -13 -15 -13 5 0 26 -31 30 -50 7 -10 -11 -10 -18 -1 -29
15 -18 4 -66 -16 -66 -14 0 -53 72 -53 100 0 8 9 26 20 40 11 14 19 18 18 10
-2 -8 -8 -20 -15 -27 -15 -16 -6 -50 15 -58 14 -5 15 -4 5 6 -18 18 -16 32 10
59 12 14 21 28 20 32 -3 8 13 11 62 10 21 -1 25 2 15 8 -8 5 -32 6 -55 3 -69
-9 -28 10 48 23 40 6 78 12 85 13 7 1 29 -16 47 -36z m-291 -12 c25 -21 19
-33 -13 -28 -27 5 -29 3 -25 -22 3 -19 2 -22 -5 -11 -9 12 -11 12 -17 -3 -3
-9 -3 -25 1 -34 7 -17 8 -16 15 2 6 17 8 15 12 -12 4 -28 0 -36 -31 -58 l-36
-25 -3 60 c-2 44 -7 60 -17 60 -19 0 -36 -33 -26 -49 8 -13 5 -70 -4 -79 -10
-10 -13 3 -19 63 -4 41 -11 64 -23 73 -23 16 -22 18 2 36 15 12 16 15 5 16
-22 0 -43 -16 -36 -28 3 -6 0 -13 -6 -15 -10 -4 -9 -8 2 -16 15 -11 13 -12
-25 -15 -18 -1 -20 -7 -16 -68 l3 -68 -38 0 c-56 0 -104 32 -104 69 0 37 21
77 59 112 23 20 45 29 88 35 32 3 78 10 103 13 69 10 136 6 154 -8z m273 -102
c-5 -29 -14 -32 -19 -6 -3 15 0 24 8 24 8 0 12 -8 11 -18z m-481 -95 c-9 -23
-23 -16 -23 11 0 14 3 25 8 25 5 0 9 5 9 11 0 5 -6 7 -12 3 -8 -5 -7 0 2 11
14 17 15 16 18 -14 2 -18 1 -39 -2 -47z m428 39 c-5 -16 -4 -16 8 -3 7 9 19
15 26 14 6 -1 17 -2 22 -3 24 -3 7 -19 -26 -26 -40 -7 -49 -3 -41 20 9 21 18
19 11 -2z m-87 -15 c-3 -8 -6 -5 -6 6 -1 11 2 17 5 13 3 -3 4 -12 1 -19z m33
-2 c0 -3 -4 -8 -10 -11 -5 -3 -10 -1 -10 4 0 6 5 11 10 11 6 0 10 -2 10 -4z"/>
<path d="M2100 3503 c0 -5 28 -23 62 -39 34 -16 79 -42 100 -57 l39 -28 -3 28
c-2 23 -14 33 -68 60 -69 34 -130 51 -130 36z"/>
<path d="M2278 3223 c-34 -39 -41 -64 -23 -82 15 -15 18 -14 46 17 33 37 39
82 11 82 -11 0 -26 -8 -34 -17z"/>
<path d="M2350 3168 c-28 -30 -23 -72 8 -76 18 -3 26 5 41 39 11 24 17 47 15
51 -10 15 -43 8 -64 -14z"/>
<path d="M1985 2910 c-8 -27 10 -49 26 -33 13 13 8 45 -8 50 -6 2 -14 -6 -18
-17z"/>
<path d="M2097 2863 c-10 -9 -8 -41 2 -48 12 -7 41 22 41 41 0 14 -31 20 -43
7z"/>
<path d="M2340 2830 c0 -5 5 -10 10 -10 6 0 10 5 10 10 0 6 -4 10 -10 10 -5 0
-10 -4 -10 -10z"/>
<path d="M2140 1773 c0 -6 8 -17 18 -24 16 -13 16 -13 2 6 -8 11 -16 22 -17
24 -2 2 -3 0 -3 -6z"/>
<path d="M1429 1319 c-12 -24 -2 -41 11 -19 7 10 10 11 10 3 0 -7 5 -13 10
-13 16 0 12 37 -5 44 -9 3 -19 -3 -26 -15z"/>
<path d="M1414 1258 c3 -13 5 -29 5 -36 1 -7 6 -10 12 -6 8 5 8 1 0 -14 -9
-17 -8 -19 10 -15 11 3 18 11 15 19 -3 7 -1 14 3 16 5 2 12 14 16 27 7 22 5
23 -20 17 -17 -4 -24 -3 -20 4 3 5 -1 10 -9 10 -11 0 -15 -7 -12 -22z"/>
<path d="M1509 1258 c-1 -7 -1 -19 0 -25 1 -7 -3 -13 -9 -13 -6 0 -9 -4 -5 -9
3 -5 1 -12 -5 -16 -6 -4 -8 -11 -4 -16 3 -6 15 -4 29 5 17 11 26 12 31 5 8
-13 -16 -31 -33 -24 -8 3 -13 -5 -13 -21 0 -16 -4 -23 -12 -18 -14 9 -3 -85
13 -101 7 -7 8 -5 4 8 -5 12 -2 17 10 17 12 0 15 -5 10 -21 -5 -14 -4 -19 4
-15 6 4 9 2 6 -6 -3 -8 7 -21 23 -30 27 -16 29 -16 40 3 9 14 19 18 35 14 20
-5 20 -5 -2 9 -14 7 -32 12 -40 9 -12 -4 -13 -3 -3 4 26 19 0 47 -44 46 -6 0
-11 5 -11 12 0 7 6 11 13 8 17 -6 59 23 45 32 -6 3 -15 3 -21 0 -6 -3 -7 1 -4
9 3 9 10 13 15 10 5 -3 9 0 9 5 0 6 -5 11 -11 11 -6 0 -9 9 -6 20 3 11 2 20
-1 20 -4 0 -8 11 -8 25 -1 15 3 25 12 25 8 0 14 5 14 10 0 13 -11 12 -31 -3
-9 -7 -15 -19 -14 -28 2 -11 -3 -16 -14 -14 -11 1 -15 11 -14 33 1 30 -6 47
-8 20z m8 -160 c-3 -8 -6 -5 -6 6 -1 11 2 17 5 13 3 -3 4 -12 1 -19z"/>
<path d="M1590 1209 c0 -5 5 -7 10 -4 6 3 10 8 10 11 0 2 -4 4 -10 4 -5 0 -10
-5 -10 -11z"/>
<path d="M1682 1150 c0 -14 2 -19 5 -12 2 6 2 18 0 25 -3 6 -5 1 -5 -13z"/>
<path d="M1427 1147 c-4 -10 -7 -26 -7 -35 1 -15 2 -15 11 1 6 10 9 25 7 35
-3 16 -4 15 -11 -1z"/>
<path d="M1671 1084 c0 -11 3 -14 6 -6 3 7 2 16 -1 19 -3 4 -6 -2 -5 -13z"/>
<path d="M1420 1081 c0 -5 7 -11 15 -15 9 -3 15 0 15 9 0 8 -7 15 -15 15 -8 0
-15 -4 -15 -9z"/>
<path d="M1610 1041 c0 -5 7 -12 16 -15 14 -5 15 -4 4 9 -14 17 -20 19 -20 6z"/>
<path d="M1630 969 c0 -5 5 -7 10 -4 6 3 10 8 10 11 0 2 -4 4 -10 4 -5 0 -10
-5 -10 -11z"/>
<path d="M1475 959 c-4 -6 -4 -13 -1 -16 3 -4 6 -1 6 6 0 7 5 9 12 5 7 -4 8
-3 4 4 -9 15 -13 15 -21 1z"/>
<path d="M1530 955 c-11 -13 -9 -15 11 -16 17 -1 19 -3 7 -6 -10 -2 -18 -9
-18 -14 0 -6 8 -9 18 -7 9 1 23 -1 30 -5 17 -11 35 2 28 20 -3 8 -1 11 4 8 6
-3 10 -2 10 4 0 14 -18 23 -25 12 -6 -11 -36 -3 -46 11 -3 5 -12 2 -19 -7z"/>
<path d="M2717 1383 c-12 -12 -7 -19 12 -19 15 0 17 3 9 13 -12 15 -13 15 -21
6z"/>
<path d="M2476 1265 c4 -8 8 -15 10 -15 2 0 4 7 4 15 0 8 -4 15 -10 15 -5 0
-7 -7 -4 -15z"/>
<path d="M2506 1265 c-9 -26 -7 -32 5 -12 6 10 9 21 6 23 -2 3 -7 -2 -11 -11z"/>
<path d="M2770 1270 c0 -5 5 -10 10 -10 6 0 10 5 10 10 0 6 -4 10 -10 10 -5 0
-10 -4 -10 -10z"/>
<path d="M2463 1233 c-17 -6 -17 -20 0 -20 8 0 14 6 14 14 0 7 -1 13 -1 12 -1
0 -7 -3 -13 -6z"/>
<path d="M2395 1030 c-3 -5 -1 -10 4 -10 6 0 11 5 11 10 0 6 -2 10 -4 10 -3 0
-8 -4 -11 -10z"/>
<path d="M2396 988 c12 -42 44 -66 44 -33 0 17 -30 55 -43 55 -5 0 -5 -10 -1
-22z"/>
<path d="M2180 870 c0 -5 7 -10 16 -10 8 0 12 5 9 10 -3 6 -10 10 -16 10 -5 0
-9 -4 -9 -10z"/>
<path d="M1910 889 c0 -5 5 -7 10 -4 6 3 10 8 10 11 0 2 -4 4 -10 4 -5 0 -10
-5 -10 -11z"/>
<path d="M1777 745 c3 -8 9 -12 14 -9 12 7 11 11 -5 17 -10 4 -13 1 -9 -8z"/>
<path d="M1431 3496 c-7 -8 -9 -25 -6 -38 3 -12 1 -43 -3 -68 -9 -43 -9 -44
-19 -20 -6 14 -21 35 -34 46 -83 75 -177 52 -213 -52 -14 -41 -14 -49 0 -75
14 -28 14 -30 -11 -39 -15 -6 -30 -10 -36 -10 -16 0 -57 -74 -64 -116 -5 -35
-2 -46 19 -71 37 -44 95 -67 150 -59 25 4 48 11 51 17 11 16 25 10 25 -11 0
-24 27 -81 44 -93 23 -15 86 -27 110 -21 14 3 44 30 67 60 41 54 44 69 24 117
-6 14 -2 17 20 17 19 0 39 12 61 36 29 30 34 42 34 85 0 28 -4 59 -10 69 -18
34 -109 52 -152 29 -17 -9 -15 -4 10 33 16 23 42 53 56 65 28 24 32 38 16 48
-12 8 -50 -12 -50 -26 0 -15 -59 -89 -71 -89 -6 0 -8 4 -5 8 3 5 7 30 11 57 3
27 10 54 16 61 7 9 7 19 -1 33 -13 25 -23 26 -39 7z m-103 -82 c35 -25 74
-114 49 -114 -7 0 -13 12 -13 26 -2 33 -41 74 -68 73 -15 -1 -16 -3 -5 -6 17
-4 43 -93 27 -93 -16 0 -67 -43 -62 -52 3 -4 1 -8 -5 -8 -5 0 -13 5 -16 10 -4
6 -10 8 -15 5 -4 -3 -18 11 -30 30 -26 42 -22 69 16 114 20 24 34 31 63 31 20
0 47 -7 59 -16z m115 -134 c-5 -20 -15 -25 -26 -13 -8 7 11 33 23 33 5 0 6 -9
3 -20z m-92 -13 c-10 -9 -11 -8 -5 6 3 10 9 15 12 12 3 -3 0 -11 -7 -18z m271
-20 c12 -18 9 -29 -4 -20 -21 12 -61 15 -53 3 3 -5 13 -10 22 -10 10 0 13 -6
9 -16 -3 -9 -6 -20 -6 -25 0 -5 -6 -9 -14 -9 -8 0 -16 -7 -20 -15 -9 -24 29
-18 47 8 l16 22 -6 -23 c-7 -30 -41 -52 -78 -51 -29 1 -29 1 -5 8 30 8 10 19
-31 17 -20 -1 -29 5 -39 27 -11 26 -13 27 -26 10 -7 -10 -14 -13 -14 -7 0 6 8
22 18 35 10 13 21 31 24 40 3 8 21 23 39 31 28 14 37 14 73 2 22 -8 44 -20 48
-27z m-212 -6 c15 -28 13 -33 -10 -21 -11 6 -20 17 -20 25 0 21 17 18 30 -4z
m-167 -20 c17 -6 17 -8 4 -20 -9 -7 -21 -11 -29 -10 -26 3 -39 -1 -33 -11 3
-5 15 -10 25 -10 14 0 21 -10 27 -42 l8 -42 35 71 c19 39 36 70 38 68 2 -2
-10 -33 -27 -68 -17 -36 -31 -74 -31 -86 0 -27 -57 -56 -91 -48 -36 10 -89 45
-88 59 0 10 2 10 6 0 6 -15 56 -42 78 -42 13 0 13 3 3 20 -7 11 -17 19 -23 19
-26 -3 -37 2 -31 16 3 8 1 15 -5 15 -6 0 -7 5 -4 10 10 17 23 11 28 -12 3 -17
5 -15 6 9 0 17 8 39 17 47 8 9 12 20 9 26 -6 9 20 14 55 11 12 -2 12 0 1 7
-20 14 -94 -6 -113 -31 -10 -12 -18 -35 -18 -50 0 -16 -4 -26 -9 -23 -11 7
-10 21 8 65 21 49 96 75 154 52z m143 -25 c10 -8 16 -18 11 -22 -4 -4 -16 2
-27 14 -23 25 -14 29 16 8z m-24 -36 c11 -12 13 -22 7 -26 -6 -3 -17 2 -24 12
-27 36 -12 48 17 14z m33 -49 c-8 -17 -20 -31 -26 -31 -6 0 -7 -5 -4 -10 4 -6
10 -8 15 -5 5 3 24 -8 42 -24 30 -26 31 -31 20 -56 -15 -32 -7 -51 14 -34 8 6
14 7 14 2 0 -16 -23 -33 -44 -32 -18 1 -18 2 -3 6 9 2 15 8 12 13 -3 5 -12 7
-20 3 -9 -3 -26 2 -40 11 -32 21 -41 20 -24 -1 11 -15 10 -14 -9 1 -16 14 -22
30 -22 58 0 21 5 38 11 38 6 0 8 -9 4 -22 -7 -23 -7 -23 8 -3 11 14 12 22 4
27 -7 4 1 20 21 43 18 19 32 41 32 47 0 6 3 9 6 6 3 -4 -2 -20 -11 -37z m-61
3 c5 -14 4 -15 -9 -4 -17 14 -19 20 -6 20 5 0 12 -7 15 -16z m151 -39 c38 -36
41 -56 15 -95 -9 -13 -11 -13 -20 0 -14 22 -12 34 4 21 11 -9 15 -8 20 6 5 11
-3 27 -23 47 -25 24 -32 27 -45 17 -13 -11 -13 -9 -3 13 7 14 12 26 13 26 1 0
18 -16 39 -35z m-179 -12 c-10 -10 -19 5 -10 18 6 11 8 11 12 0 2 -7 1 -15 -2
-18z"/>
<path d="M1195 3350 c-3 -5 -1 -10 4 -10 6 0 11 5 11 10 0 6 -2 10 -4 10 -3 0
-8 -4 -11 -10z"/>
<path d="M1256 3353 c-12 -12 -6 -33 9 -33 8 0 15 6 15 14 0 17 -14 28 -24 19z"/>
<path d="M1180 3320 c0 -5 5 -10 10 -10 6 0 10 5 10 10 0 6 -4 10 -10 10 -5 0
-10 -4 -10 -10z"/>
<path d="M1200 3292 c0 -12 19 -26 26 -19 2 2 -2 10 -11 17 -9 8 -15 8 -15 2z"/>
<path d="M1525 3260 c11 -5 27 -9 35 -9 9 0 8 4 -5 9 -11 5 -27 9 -35 9 -9 0
-8 -4 5 -9z"/>
<path d="M1500 3200 c0 -13 7 -20 20 -20 13 0 20 7 20 20 0 13 -7 20 -20 20
-13 0 -20 -7 -20 -20z"/>
<path d="M1185 3129 c-4 -6 -3 -15 3 -21 6 -6 11 -4 15 6 7 18 -9 31 -18 15z"/>
<path d="M1229 3078 c0 -2 -2 -11 -4 -21 -3 -15 -1 -16 11 -6 16 13 19 29 4
29 -5 0 -10 -1 -11 -2z"/>
<path d="M1386 3012 c-3 -6 -1 -14 5 -17 15 -10 25 3 12 16 -7 7 -13 7 -17 1z"/>
<path d="M3619 3313 c-13 -16 -12 -17 4 -4 16 13 21 21 13 21 -2 0 -10 -8 -17
-17z"/>
<path d="M990 2515 c-13 -14 -21 -27 -18 -31 3 -3 16 9 28 25 26 37 22 40 -10
6z"/>
<path d="M810 1117 c0 -12 38 -99 61 -140 5 -10 7 -22 3 -28 -7 -12 15 -41 27
-33 11 6 12 48 2 58 -4 4 -9 18 -10 32 -2 14 -18 47 -34 75 -30 48 -49 62 -49
36z"/>
<path d="M737 1104 c-3 -4 5 -21 19 -40 14 -18 34 -55 44 -83 l20 -50 -148
-74 -148 -75 -12 50 c-17 73 -52 108 -52 53 0 -14 4 -25 9 -25 10 0 26 -74 22
-101 -4 -29 26 -28 60 1 19 16 39 29 46 30 6 0 44 17 85 39 40 21 94 46 120
56 50 18 63 35 49 63 -13 23 -24 56 -23 63 1 4 -8 15 -18 24 -11 10 -20 23
-20 30 0 11 -31 45 -42 45 -2 0 -7 -3 -11 -6z"/>
<path d="M3070 914 c-6 -14 -10 -34 -10 -45 0 -11 -7 -31 -16 -44 -15 -24 -12
-45 7 -45 5 0 9 8 9 18 0 10 4 22 9 28 13 14 40 102 33 108 -11 12 -23 5 -32
-20z"/>
<path d="M200 898 c1 -16 56 -78 69 -78 12 0 85 -110 77 -117 -3 -3 -49 -34
-103 -69 -175 -113 -203 -134 -203 -155 0 -19 5 -17 48 14 26 19 79 55 117 81
39 25 75 50 80 54 6 4 31 17 58 30 42 21 64 52 36 52 -6 0 -9 6 -6 14 3 8 -1
20 -9 26 -8 7 -14 18 -14 25 0 8 -4 15 -8 17 -4 2 -23 23 -42 47 -43 53 -100
87 -100 59z"/>
<path d="M330 890 c0 -5 16 -30 35 -56 19 -25 38 -57 41 -70 4 -14 14 -29 24
-34 14 -8 17 -5 15 14 -3 24 -22 67 -35 76 -3 3 -19 22 -34 43 -28 36 -46 47
-46 27z"/>
<path d="M3147 852 c-20 -21 -37 -43 -37 -49 0 -7 -9 -15 -20 -18 -25 -8 -26
-23 -2 -32 9 -4 22 -11 27 -15 6 -5 34 -23 63 -41 80 -49 192 -129 192 -137 0
-3 6 -7 13 -7 6 0 19 -4 28 -7 12 -5 22 2 37 26 26 42 64 156 57 169 -13 19
-22 7 -40 -53 -10 -35 -25 -73 -32 -85 l-15 -22 -49 32 c-28 18 -69 44 -92 59
-23 15 -68 42 -99 60 -32 18 -58 37 -58 43 0 15 49 59 83 73 15 6 27 16 27 22
0 6 -4 8 -10 5 -5 -3 -10 -1 -10 4 0 22 -27 10 -63 -27z"/>
<path d="M3538 666 c-10 -13 -22 -43 -27 -65 -5 -23 -16 -52 -25 -66 -21 -31
-20 -45 2 -45 13 0 25 24 50 93 17 50 32 95 32 100 0 14 -15 6 -32 -17z"/>
<path d="M3655 580 c-16 -17 -53 -49 -82 -72 -54 -44 -67 -74 -35 -85 9 -4 19
-9 22 -13 3 -4 32 -25 65 -47 33 -22 77 -57 97 -77 20 -20 42 -36 48 -36 5 0
10 -9 10 -20 0 -11 7 -23 16 -27 9 -3 32 -21 50 -40 39 -39 40 -38 16 13 -23
49 -83 110 -180 185 -42 32 -87 66 -99 76 l-22 18 71 71 c38 39 66 74 61 77
-6 4 -23 -7 -38 -23z"/>
<path d="M1096 490 c-53 -7 -85 -36 -86 -80 0 -14 -3 -35 -6 -48 -6 -22 -10
-23 -55 -17 -62 9 -119 -21 -119 -63 0 -76 74 -147 127 -123 30 14 53 0 53
-31 0 -35 30 -78 70 -98 50 -25 67 -25 135 2 39 16 59 31 68 51 6 15 18 25 24
23 17 -7 83 21 110 47 45 41 39 116 -12 158 -24 21 -93 31 -117 18 -18 -10
-27 4 -9 15 12 8 5 53 -13 81 -14 22 -55 47 -101 64 -11 4 -42 4 -69 1z m24
-30 c-8 -5 -22 -10 -32 -10 -9 0 -26 -12 -37 -27 -11 -16 -21 -23 -21 -17 0
15 41 51 65 57 34 8 41 7 25 -3z m55 -10 c13 -6 15 -9 5 -9 -8 0 -22 4 -30 9
-18 12 -2 12 25 0z m39 -18 c3 -5 -1 -9 -9 -9 -8 0 -12 4 -9 9 3 4 7 8 9 8 2
0 6 -4 9 -8z m-94 -33 c0 -18 -18 -9 -23 12 -4 16 -3 18 9 8 8 -6 14 -15 14
-20z m57 -36 c-4 -3 1 -12 11 -20 15 -13 15 -13 -5 -3 -24 11 -31 30 -11 30 6
0 8 -3 5 -7z m-187 -53 c21 -7 18 -8 -17 -7 -23 0 -48 4 -55 8 -17 11 38 10
72 -1z m216 -25 c22 -34 10 -59 -37 -80 -54 -25 -93 -13 -97 31 -4 44 18 58
110 73 4 0 15 -10 24 -24z m162 7 c13 -9 6 -42 -9 -42 -4 0 -6 7 -3 14 4 10
-5 18 -28 25 l-33 9 30 1 c17 0 36 -3 43 -7z m42 -22 c0 -5 -2 -10 -4 -10 -3
0 -8 5 -11 10 -3 6 -1 10 4 10 6 0 11 -4 11 -10z m-488 -27 c-6 -3 -9 -10 -6
-15 4 -7 2 -8 -5 -4 -9 6 -9 11 0 22 6 8 15 12 18 8 3 -4 0 -9 -7 -11z m78
-28 c-7 -9 -15 -13 -17 -11 -6 6 20 36 26 30 2 -2 -2 -10 -9 -19z m300 4 c0
-5 4 -7 10 -4 5 3 7 0 4 -8 -3 -9 -13 -13 -25 -10 -10 3 -17 9 -14 13 3 5 -1
11 -7 13 -7 3 -3 6 10 6 12 1 22 -4 22 -10z m55 1 c3 -5 1 -10 -4 -10 -6 0
-11 5 -11 10 0 6 2 10 4 10 3 0 8 -4 11 -10z m65 -17 c-1 -12 -72 -63 -87 -63
-25 0 -8 23 17 25 13 1 31 11 39 23 16 21 31 29 31 15z m-374 -29 c-4 -9 -9
-15 -11 -12 -3 3 -3 13 1 22 4 9 9 15 11 12 3 -3 3 -13 -1 -22z m137 -6 c-13
-6 -23 -15 -23 -19 0 -4 -9 -7 -20 -6 -27 2 -25 5 13 21 37 17 63 20 30 4z
m-83 -8 c8 -5 11 -10 5 -10 -5 0 -17 5 -25 10 -8 5 -10 10 -5 10 6 0 17 -5 25
-10z m153 -41 c7 -27 -21 -55 -70 -69 -34 -10 -45 -9 -85 9 -25 12 -50 33 -56
46 -14 31 3 34 19 4 8 -15 14 -18 22 -10 7 7 14 7 24 0 9 -8 13 -8 13 0 0 16
21 13 43 -6 11 -10 17 -12 13 -5 -4 6 -2 12 4 12 7 0 9 -9 5 -22 -5 -20 -2
-18 25 10 26 28 29 36 19 55 -11 19 -10 20 3 9 9 -7 18 -22 21 -33z"/>
<path d="M1147 69 c7 -7 15 -10 18 -7 3 3 -2 9 -12 12 -14 6 -15 5 -6 -5z"/>
<path d="M2970 477 c-30 -15 -50 -33 -60 -55 -11 -27 -18 -32 -36 -28 -24 6
-95 -18 -129 -44 -36 -27 -47 -66 -30 -106 15 -36 72 -71 89 -54 5 5 17 5 28
-1 10 -5 23 -7 29 -3 6 3 10 0 8 -7 -4 -34 4 -52 41 -89 37 -37 44 -40 93 -39
69 0 141 28 145 56 2 15 13 22 40 27 60 10 126 58 139 100 10 33 9 40 -10 63
-32 37 -79 54 -127 47 l-40 -7 11 31 c8 25 7 37 -11 72 -33 64 -98 78 -180 37z
m127 -23 c-6 -6 -47 9 -47 17 0 5 11 3 25 -3 14 -6 24 -13 22 -14z m-77 6 c0
-5 -5 -10 -11 -10 -5 0 -7 5 -4 10 3 6 8 10 11 10 2 0 4 -4 4 -10z m20 -34 c0
-3 -4 -8 -10 -11 -5 -3 -10 -1 -10 4 0 6 5 11 10 11 6 0 10 -2 10 -4z m-47
-51 c-3 -9 -8 -14 -10 -11 -3 3 -2 9 2 15 9 16 15 13 8 -4z m38 -18 c-10 -9
-11 -8 -5 6 3 10 9 15 12 12 3 -3 0 -11 -7 -18z m47 -50 c33 -26 -16 -77 -81
-84 -38 -5 -47 -2 -56 16 -31 58 79 113 137 68z m200 -11 c7 -4 12 -12 12 -17
0 -6 -10 -3 -22 5 -12 9 -41 16 -63 16 -25 0 -35 3 -27 9 14 8 79 0 100 -13z
m-425 -68 c-6 -11 -31 -10 -37 1 -3 5 5 8 18 7 13 0 22 -4 19 -8z m392 2 c-3
-6 4 -14 16 -18 19 -7 20 -10 6 -15 -11 -4 -20 1 -27 13 -13 24 -13 30 1 30 5
0 7 -5 4 -10z m55 0 c0 -5 -4 -10 -10 -10 -5 0 -10 5 -10 10 0 6 5 10 10 10 6
0 10 -4 10 -10z m-72 -44 c15 5 15 4 2 -5 -23 -16 -30 -13 -29 12 1 16 3 17 6
5 3 -11 11 -15 21 -12z m-230 -68 c-20 -12 -25 -10 -31 11 -4 17 -2 18 19 9
18 -8 21 -14 12 -20z m62 -2 c0 -3 -4 -8 -10 -11 -5 -3 -10 -1 -10 4 0 6 5 11
10 11 6 0 10 -2 10 -4z m50 -10 c0 -2 -8 -10 -17 -17 -16 -13 -17 -12 -4 4 13
16 21 21 21 13z m-97 -23 c-7 -2 -19 -2 -25 0 -7 3 -2 5 12 5 14 0 19 -2 13
-5z"/>
</g>
</svg>
